<svg xmlns="http://www.w3.org/2000/svg" width="394" height="350" viewBox="0 0 394 350" fill="none">
  <path d="M72.618,95.705C72.106,43.933 113.668,1.536 165.443,1.02L269.296,0.005C321.068,-0.514 363.452,41.049 363.965,92.817L364.121,108.483C364.631,160.258 323.074,202.645 271.306,203.155L167.446,204.18C115.674,204.695 73.293,163.136 72.781,111.364L72.618,95.705Z" fill="#FCE788"/>
  <path d="M0.005,158.412C-0.505,106.637 41.055,64.247 92.82,63.744L196.683,62.709C248.452,62.197 290.833,103.759 291.345,155.537L291.508,171.19C292.02,222.972 250.461,265.356 198.686,265.869L94.833,266.89C43.058,267.409 0.661,225.844 0.164,174.078L0.005,158.412Z" fill="#E7411A"/>
  <path d="M102.407,241.097C101.897,189.325 143.463,146.934 195.232,146.419L299.085,145.394C350.863,144.881 393.25,186.437 393.753,238.212L393.919,253.878C394.432,305.653 352.869,348.034 301.097,348.553L197.247,349.578C145.463,350.09 103.082,308.534 102.572,256.759L102.407,241.097Z" fill="#F7B00C"/>
</svg>
